<?xml version="1.0" standalone="no"?>
<!DOCTYPE svg PUBLIC "-//W3C//DTD SVG 20010904//EN"
 "http://www.w3.org/TR/2001/REC-SVG-20010904/DTD/svg10.dtd">
<svg version="1.0" xmlns="http://www.w3.org/2000/svg"
 width="426.000000pt" height="122.000000pt" viewBox="0 0 426.000000 122.000000"
 preserveAspectRatio="xMidYMid meet">

<g transform="translate(0.000000,122.000000) scale(0.100000,-0.100000)"
fill="#000000" stroke="none">
<path d="M34 1186 l-34 -34 0 -542 0 -542 34 -34 34 -34 2062 0 2062 0 34 34
34 34 0 542 0 542 -34 34 -34 34 -2062 0 -2062 0 -34 -34z m811 -168 c-17 -80
-67 -136 -137 -153 -25 -6 -28 -4 -28 18 0 74 82 167 148 167 21 0 23 -3 17
-32z m1080 1 c0 -7 -8 -15 -17 -17 -18 -3 -25 18 -11 32 10 10 28 1 28 -15z
m95 -90 c0 -100 -2 -110 -17 -107 -16 3 -18 18 -21 111 -3 102 -2 107 18 107
19 0 20 -6 20 -111z m268 75 c-4 -35 -4 -35 28 -30 47 9 79 -20 79 -72 0 -60
-25 -82 -91 -80 l-54 2 0 108 c0 103 1 108 21 108 18 0 21 -5 17 -36z m192
-74 c0 -91 -3 -110 -15 -110 -12 0 -15 19 -15 110 0 91 3 110 15 110 12 0 15
-19 15 -110z m950 77 c0 -41 7 -49 30 -35 14 9 24 8 44 -5 24 -16 26 -24 26
-82 0 -51 -3 -65 -15 -65 -11 0 -15 13 -15 53 0 48 -12 77 -31 77 -22 0 -39
-35 -39 -81 0 -37 -4 -49 -15 -49 -12 0 -15 19 -15 110 0 91 3 110 15 110 10
0 15 -10 15 -33z m-1959 -65 c16 -46 31 -92 34 -103 11 -33 -29 -23 -42 11
-10 25 -17 30 -46 30 -31 0 -36 -4 -42 -30 -5 -21 -13 -30 -26 -30 -10 0 -19
1 -19 3 0 3 55 169 65 195 3 7 15 12 27 10 17 -2 27 -19 49 -86z m1846 48 c3
-11 12 -20 19 -20 8 0 14 -4 14 -10 0 -5 -7 -10 -15 -10 -11 0 -15 -12 -15
-49 0 -34 4 -51 15 -55 24 -9 17 -26 -10 -26 -30 0 -45 26 -45 77 0 22 -5 44
-11 50 -8 8 -6 18 6 37 21 31 35 33 42 6z m-1509 -26 c19 -13 22 -24 22 -78
l0 -63 -47 -1 c-53 -1 -73 10 -73 43 0 27 15 41 53 50 39 10 36 37 -5 33 -34
-3 -51 17 -21 25 34 9 49 7 71 -9z m360 0 c19 -13 22 -24 22 -78 l0 -63 -47
-1 c-53 -1 -73 10 -73 43 0 28 17 43 59 51 39 8 35 28 -5 31 -48 2 -50 3 -30
18 25 19 46 19 74 -1z m477 -9 c14 -13 25 -33 25 -45 0 -17 -6 -20 -50 -20
-37 0 -50 -4 -50 -15 0 -18 32 -36 59 -32 11 1 21 -2 23 -8 5 -16 -75 -17 -97
-1 -30 22 -28 101 4 127 31 26 57 24 86 -6z m283 2 c24 -25 26 -80 2 -110 -28
-36 -91 -39 -114 -5 -41 59 3 147 67 134 17 -4 38 -12 45 -19z m180 7 c19 -13
22 -24 22 -80 0 -50 -3 -64 -15 -64 -11 0 -15 13 -15 53 0 48 -12 77 -31 77
-22 0 -39 -35 -39 -81 0 -37 -4 -49 -15 -49 -12 0 -15 15 -15 76 0 70 2 76 19
71 10 -2 25 -1 32 4 20 12 32 11 57 -7z m577 -9 c14 -13 25 -33 25 -45 0 -17
-6 -20 -50 -20 -37 0 -50 -4 -50 -15 0 -18 32 -36 59 -32 11 1 21 -2 23 -8 2
-5 -15 -11 -37 -13 -53 -4 -85 24 -85 74 0 40 36 84 70 84 12 0 32 -11 45 -25z
m-2097 -38 c7 -26 17 -45 21 -42 5 2 14 25 20 50 9 34 16 45 31 45 11 0 20 -2
20 -3 0 -2 -13 -35 -28 -73 -38 -91 -58 -93 -89 -9 -27 74 -28 87 -6 83 11 -2
22 -21 31 -51z m337 -22 c0 -58 -3 -70 -17 -73 -16 -3 -18 6 -18 73 0 67 2 76
18 73 14 -3 17 -15 17 -73z m-1277 -66 c38 -12 49 -11 91 4 77 27 148 23 204
-13 42 -27 63 -60 37 -60 -6 0 -24 -21 -40 -47 -24 -38 -30 -58 -30 -102 0
-65 20 -105 74 -146 l35 -27 -30 -60 c-37 -73 -101 -145 -137 -153 -16 -3 -51
3 -84 15 -71 25 -75 25 -146 0 -74 -26 -102 -19 -152 37 -54 61 -97 151 -116
243 -30 145 13 257 121 315 34 18 103 16 173 -6z m2090 -165 c18 -5 22 -13 20
-33 -3 -25 -5 -26 -59 -23 -63 4 -94 -8 -104 -38 -10 -33 13 -59 80 -91 78
-37 105 -71 105 -132 0 -35 -6 -51 -28 -75 -34 -36 -100 -56 -157 -47 -58 8
-80 25 -72 57 7 25 8 25 44 12 47 -16 78 -17 106 -3 29 16 37 28 37 60 0 32
-17 47 -93 83 -62 30 -97 71 -97 116 0 37 36 89 73 105 34 15 106 19 145 9z
m-1177 -99 c16 -49 47 -143 68 -208 42 -125 41 -133 -11 -125 -18 2 -27 16
-44 63 l-21 60 -69 0 -68 0 -20 -63 c-19 -60 -21 -62 -53 -62 -38 0 -40 10
-19 67 8 21 38 111 66 201 l52 163 45 -3 45 -3 29 -90z m1377 12 c3 -35 5 -37
38 -37 30 0 34 -3 34 -25 0 -22 -4 -25 -35 -25 l-35 0 0 -93 c0 -99 7 -117 47
-117 32 0 33 -45 1 -54 -42 -11 -59 -6 -89 23 -28 29 -29 32 -29 130 0 99 -1
102 -25 111 -32 12 -34 47 -3 52 16 2 24 12 28 32 5 27 32 48 55 42 6 -1 11
-19 13 -39z m-981 -47 c18 -10 40 -34 50 -52 22 -42 22 -132 0 -175 -35 -67
-110 -98 -168 -69 -18 9 -33 16 -35 16 -2 0 -4 -33 -6 -72 -3 -68 -5 -73 -27
-76 -13 -2 -27 0 -32 5 -4 4 -9 103 -9 218 l-2 210 31 3 c23 2 31 -1 31 -12 0
-18 16 -21 25 -5 20 32 97 37 142 9z m359 1 c17 -10 38 -34 47 -54 21 -44 22
-138 2 -177 -33 -64 -109 -94 -166 -66 -18 9 -35 16 -38 16 -3 0 -6 -33 -6
-72 l0 -73 -32 -3 c-18 -2 -33 0 -33 5 0 4 -1 104 -3 221 l-2 213 30 -3 c18
-2 29 -8 28 -15 -4 -16 23 -17 32 -2 20 31 97 37 141 10z m948 5 c18 -8 46
-30 61 -50 36 -48 39 -137 4 -192 -23 -38 -85 -74 -129 -74 -49 0 -108 36
-129 79 -74 144 51 296 193 237z m314 -18 c-2 -27 -8 -34 -29 -36 -51 -6 -64
-33 -67 -149 l-4 -104 -31 3 -32 3 -3 153 -3 152 31 0 c23 0 30 -4 30 -20 0
-24 18 -27 27 -4 6 17 37 32 66 33 15 1 18 -5 15 -31z m248 13 c35 -21 68 -92
62 -132 -3 -23 -6 -24 -105 -27 -92 -2 -103 -5 -103 -21 0 -10 12 -31 26 -46
24 -26 29 -27 89 -22 58 4 65 3 71 -15 8 -25 -5 -34 -64 -42 -47 -6 -105 5
-133 27 -33 25 -59 81 -59 127 0 127 119 210 216 151z"/>
<path d="M2302 938 c-7 -7 -12 -27 -12 -45 0 -41 30 -61 54 -37 29 28 15 94
-19 94 -6 0 -16 -5 -23 -12z"/>
<path d="M1406 958 c-10 -38 -7 -48 14 -48 11 0 20 6 20 13 0 23 -12 57 -20
57 -4 0 -10 -10 -14 -22z"/>
<path d="M1747 877 c-3 -8 -1 -20 4 -28 10 -17 42 -1 47 25 4 20 -43 23 -51 3z"/>
<path d="M2113 883 c-18 -7 -16 -30 3 -37 19 -7 44 10 44 30 0 14 -23 17 -47
7z"/>
<path d="M2577 944 c-17 -17 -5 -34 24 -34 24 0 30 4 27 18 -3 17 -38 29 -51
16z"/>
<path d="M2847 932 c-22 -25 -21 -55 2 -76 29 -26 61 -6 61 37 0 54 -32 73
-63 39z"/>
<path d="M3617 944 c-17 -17 -5 -34 24 -34 24 0 30 4 27 18 -3 17 -38 29 -51
16z"/>
<path d="M1476 578 c-2 -7 -13 -45 -25 -84 -11 -39 -21 -73 -21 -77 0 -4 25
-7 55 -7 30 0 55 4 55 8 0 4 -9 33 -20 65 -11 31 -20 65 -20 76 0 23 -19 38
-24 19z"/>
<path d="M1821 464 c-31 -39 -30 -132 2 -162 31 -29 72 -28 102 3 20 20 25 34
25 78 0 70 -26 107 -75 107 -24 0 -39 -7 -54 -26z"/>
<path d="M2180 470 c-16 -16 -20 -33 -20 -85 0 -52 4 -69 20 -85 20 -20 54
-26 85 -14 45 18 61 131 24 178 -26 33 -79 36 -109 6z"/>
<path d="M3155 476 c-50 -50 -40 -170 16 -190 63 -22 109 23 109 108 0 33 -6
52 -26 75 -31 38 -66 40 -99 7z"/>
<path d="M3701 474 c-36 -46 -29 -54 49 -54 63 0 70 2 70 20 0 57 -83 80 -119
34z"/>
</g>
</svg>
