<?xml version="1.0" standalone="no"?>
<!DOCTYPE svg PUBLIC "-//W3C//DTD SVG 20010904//EN"
 "http://www.w3.org/TR/2001/REC-SVG-20010904/DTD/svg10.dtd">
<svg version="1.0" xmlns="http://www.w3.org/2000/svg"
 width="425.000000pt" height="122.000000pt" viewBox="0 0 425.000000 122.000000"
 preserveAspectRatio="xMidYMid meet">

<g transform="translate(0.000000,122.000000) scale(0.100000,-0.100000)"
fill="#000000" stroke="none">
<path d="M38 1191 l-33 -29 -3 -555 -2 -555 31 -26 31 -26 2063 0 2063 0 31
26 31 26 0 550 0 550 -29 29 -30 29 -1077 0 c-592 0 -1079 2 -1082 5 -3 3
-446 5 -984 5 l-978 0 -32 -29z m2602 -211 c16 -10 7 -25 -17 -25 -9 0 -20
-11 -24 -23 -7 -20 -5 -25 11 -29 26 -7 26 -23 0 -23 -18 0 -20 -7 -20 -71 0
-52 -3 -70 -12 -67 -8 3 -14 29 -16 69 -2 35 -8 67 -15 72 -9 7 -9 10 1 14 6
2 12 13 12 24 0 19 41 69 57 69 4 0 15 -4 23 -10z m-710 -120 c0 -100 -2 -120
-15 -120 -12 0 -15 20 -15 120 0 100 3 120 15 120 13 0 15 -20 15 -120z m520
6 c0 -78 -4 -117 -12 -122 -6 -4 -13 -3 -15 3 -3 8 -12 8 -33 0 -91 -34 -134
104 -48 153 23 12 31 13 48 2 11 -6 21 -12 22 -12 2 0 2 20 0 45 -4 40 -2 45
17 45 20 0 21 -5 21 -114z m-1530 -51 l0 -155 -175 0 -175 0 0 130 c0 72 1
130 3 131 7 2 315 47 330 48 15 1 17 -13 17 -154z m279 149 c51 -11 81 -49 81
-105 0 -39 -6 -55 -28 -80 -23 -26 -36 -31 -90 -36 l-62 -6 0 111 c0 79 4 112
13 115 18 8 50 8 86 1z m-649 -174 l0 -130 -135 0 -135 0 0 110 0 109 33 6
c47 9 199 32 220 34 15 1 17 -11 17 -129z m893 88 c25 -30 22 -84 -8 -113 -43
-44 -105 -29 -125 30 -28 85 75 151 133 83z m395 16 c19 -13 22 -24 22 -85 0
-52 -3 -70 -12 -67 -8 3 -15 30 -18 69 -5 63 -5 64 -35 64 -30 0 -30 -1 -35
-64 -3 -39 -10 -66 -17 -69 -10 -3 -13 17 -13 77 0 47 4 81 10 81 6 0 10 -5
10 -11 0 -5 10 -3 22 5 12 9 27 16 33 16 6 0 21 -7 33 -16z m260 -8 c8 -7 16
-32 19 -54 5 -34 1 -44 -20 -66 -65 -65 -165 8 -125 90 24 51 89 66 126 30z
m129 18 c12 -3 25 -15 29 -27 11 -34 7 -131 -5 -135 -6 -2 -11 1 -11 8 0 8 -6
8 -21 0 -31 -17 -68 -4 -75 26 -8 32 20 64 56 64 32 0 41 7 33 26 -3 9 -20 14
-44 14 -42 0 -53 16 -16 23 12 2 24 5 27 6 3 0 15 -2 27 -5z m507 -3 c3 -5 -5
-16 -19 -25 -20 -13 -24 -25 -27 -73 -2 -46 -7 -59 -20 -61 -16 -3 -18 6 -18
77 0 65 3 81 15 81 8 0 15 -5 15 -11 0 -6 7 -3 16 5 17 18 30 20 38 7z m141
-16 c74 -73 -26 -191 -106 -126 -35 28 -33 95 4 127 36 31 71 30 102 -1z m165
10 c15 -14 18 -14 30 0 17 21 46 19 70 -5 16 -16 20 -33 20 -85 0 -50 -3 -65
-15 -65 -10 0 -15 16 -17 61 -2 45 -8 65 -20 72 -30 19 -48 -8 -48 -74 0 -46
-3 -59 -15 -59 -11 0 -15 13 -15 54 0 66 -7 86 -29 86 -30 0 -41 -22 -41 -82
0 -45 -3 -58 -15 -58 -12 0 -15 16 -15 81 0 75 2 81 19 76 10 -2 25 -1 32 4
21 13 40 11 59 -6z m-1536 -7 c2 -7 10 -35 17 -62 l13 -50 19 62 c11 35 26 62
33 62 8 0 21 -27 32 -62 20 -65 20 -66 42 20 6 25 17 42 25 42 8 0 13 -6 10
-12 -36 -117 -49 -148 -58 -145 -7 2 -21 30 -33 62 l-21 58 -19 -59 c-11 -35
-25 -59 -33 -59 -9 0 -22 29 -36 78 -18 62 -20 77 -8 77 7 0 15 -6 17 -12z
m-954 -378 l0 -131 -52 7 c-29 4 -89 12 -133 18 l-80 11 -3 113 -3 112 136 0
135 0 0 -130z m370 -25 c0 -154 0 -155 -22 -154 -13 0 -90 10 -173 22 l-150
22 -3 133 -3 132 176 0 175 0 0 -155z m840 -35 c0 -106 -9 -146 -23 -107 -4
10 -7 10 -18 0 -36 -35 -109 7 -109 63 0 61 55 108 99 84 20 -10 21 -8 21 35
0 33 4 45 15 45 13 0 15 -20 15 -120z m848 72 c3 -39 4 -41 27 -30 19 9 29 7
50 -6 23 -15 25 -23 25 -86 0 -56 -3 -70 -15 -70 -12 0 -15 13 -15 58 0 70 -9
87 -43 78 -24 -6 -26 -11 -29 -68 -2 -38 -8 -63 -15 -66 -10 -3 -13 25 -13
118 0 93 3 121 13 118 6 -3 13 -23 15 -46z m-1489 1 c5 -21 15 -63 22 -93 14
-61 11 -65 45 63 11 39 24 67 32 67 15 0 16 -2 38 -105 l18 -80 24 93 c17 61
30 92 39 92 9 0 12 -7 9 -17 -9 -30 -34 -126 -46 -170 -6 -25 -17 -43 -25 -43
-8 0 -19 18 -25 43 -6 23 -17 62 -23 87 l-13 44 -24 -87 c-32 -114 -46 -112
-76 8 -13 50 -26 100 -29 113 -4 15 -1 22 9 22 9 0 19 -15 25 -37z m287 26
c10 -17 -13 -36 -27 -22 -12 12 -4 33 11 33 5 0 12 -5 16 -11z m1118 -10 c15
-12 26 -30 26 -45 0 -35 -42 -74 -80 -74 -29 0 -30 -2 -30 -45 0 -33 -4 -45
-15 -45 -12 0 -15 19 -15 108 0 60 3 112 7 115 14 15 81 6 107 -14z m926 11
c12 -8 12 -10 -2 -15 -10 -4 -23 -5 -30 -2 -21 7 -48 -12 -48 -33 0 -13 14
-27 40 -40 64 -33 74 -91 20 -120 -37 -20 -111 -6 -96 18 4 7 16 7 36 -1 26
-10 33 -9 51 10 26 26 14 56 -30 71 -41 14 -66 54 -52 81 20 37 76 53 111 31z
m80 -35 c0 -18 5 -25 20 -25 11 0 20 -4 20 -10 0 -5 -9 -10 -20 -10 -18 0 -20
-7 -20 -56 0 -47 3 -57 20 -61 27 -7 25 -23 -3 -23 -35 0 -47 19 -47 78 0 40
-5 58 -17 68 -17 13 -17 13 0 14 10 0 17 8 17 18 0 10 3 22 7 25 13 14 23 6
23 -18z m-1970 -35 c16 -16 20 -33 20 -85 0 -50 -3 -65 -15 -65 -11 0 -15 16
-17 68 -3 64 -4 67 -30 70 -35 4 -50 -24 -47 -86 3 -36 0 -47 -11 -47 -12 0
-16 17 -18 78 -2 64 0 77 13 77 8 0 15 -5 15 -11 0 -5 10 -3 22 5 30 21 44 20
68 -4z m344 9 c75 -34 47 -159 -35 -159 -72 0 -103 97 -46 146 31 27 45 29 81
13z m380 5 c22 -9 20 -27 -3 -21 -19 5 -51 -8 -51 -21 0 -4 15 -16 34 -26 40
-21 50 -46 29 -76 -11 -16 -23 -20 -51 -18 -21 2 -36 8 -34 13 2 6 15 8 29 7
50 -7 52 38 2 58 -22 10 -29 19 -29 41 0 38 34 58 74 43z m569 -5 c50 -23 62
-95 22 -134 -48 -49 -120 -23 -132 47 -5 32 -1 41 25 68 33 33 48 36 85 19z
m193 -10 c23 -25 28 -139 7 -146 -9 -3 -13 10 -13 47 0 59 -13 90 -38 90 -31
0 -42 -22 -42 -82 0 -45 -3 -58 -15 -58 -12 0 -15 16 -15 81 0 75 2 81 19 76
10 -2 25 -1 32 4 23 14 45 10 65 -12z m162 4 c12 -10 24 -30 28 -45 l6 -28
-56 0 c-49 0 -56 -2 -56 -20 0 -23 32 -42 65 -38 13 2 25 -1 27 -7 2 -5 -15
-11 -37 -13 -55 -4 -85 24 -85 79 0 29 7 47 25 64 28 29 55 32 83 8z m499 -7
c37 -32 39 -99 4 -127 -70 -57 -158 20 -120 105 22 48 74 58 116 22z m143 11
c0 -7 -10 -17 -22 -22 -20 -9 -23 -19 -26 -72 -2 -47 -7 -63 -17 -63 -12 0
-15 17 -15 80 0 47 4 80 10 80 6 0 10 -5 10 -12 0 -8 6 -6 17 5 20 20 43 22
43 4z m125 -12 c14 -13 25 -33 25 -45 0 -18 -6 -20 -55 -20 -59 0 -70 -13 -38
-45 12 -12 26 -15 50 -12 24 4 33 2 30 -6 -2 -7 -21 -13 -41 -15 -53 -5 -86
27 -86 80 0 44 35 88 70 88 12 0 32 -11 45 -25z m-2575 -66 c0 -54 -4 -79 -11
-77 -16 5 -18 158 -1 158 8 0 12 -23 12 -81z m599 44 c6 -21 11 -45 11 -54 0
-39 15 -24 32 31 11 33 25 60 32 60 7 0 21 -27 31 -61 l19 -62 16 59 c11 38
22 60 33 62 15 3 15 0 2 -38 -8 -23 -19 -59 -25 -81 -15 -56 -34 -49 -57 24
l-20 62 -20 -60 c-11 -35 -26 -60 -33 -60 -9 0 -22 25 -32 60 -10 33 -21 68
-24 78 -3 11 0 17 10 17 9 0 19 -15 25 -37z"/>
<path d="M2342 868 c-17 -17 -15 -74 4 -92 18 -19 20 -19 45 -6 19 11 26 60
13 94 -7 19 -45 21 -62 4z"/>
<path d="M1132 853 l3 -88 35 3 c48 3 80 41 80 93 0 52 -27 79 -80 79 l-41 0
3 -87z"/>
<path d="M1341 850 c-21 -63 33 -117 71 -70 34 42 16 100 -31 100 -23 0 -31
-6 -40 -30z"/>
<path d="M2001 852 c-24 -58 28 -114 70 -76 38 34 18 104 -30 104 -22 0 -31
-7 -40 -28z"/>
<path d="M2174 805 c-8 -21 3 -45 20 -45 19 0 46 27 46 46 0 19 -59 19 -66 -1z"/>
<path d="M2792 868 c-30 -30 -2 -113 36 -106 28 5 48 53 36 85 -10 31 -50 43
-72 21z"/>
<path d="M1650 451 c-15 -29 -12 -56 9 -82 16 -21 22 -22 45 -11 21 9 26 18
26 50 0 21 -5 43 -12 50 -18 18 -56 14 -68 -7z"/>
<path d="M2440 490 c0 -48 18 -60 55 -36 44 29 27 76 -27 76 -26 0 -28 -3 -28
-40z"/>
<path d="M1840 460 c-11 -11 -20 -30 -20 -43 0 -31 27 -67 50 -67 23 0 50 36
50 67 0 23 -32 63 -50 63 -5 0 -19 -9 -30 -20z"/>
<path d="M2810 472 c-39 -14 -51 -62 -24 -100 20 -29 50 -28 70 3 29 44 -3
112 -46 97z"/>
<path d="M3148 469 c-33 -19 -21 -39 22 -39 44 0 49 8 22 33 -21 20 -21 20
-44 6z"/>
<path d="M3631 461 c-25 -25 -27 -58 -5 -89 20 -29 50 -28 70 4 21 31 11 69
-23 91 -19 13 -24 12 -42 -6z"/>
<path d="M3907 462 c-25 -27 -21 -32 23 -32 43 0 49 9 24 34 -20 20 -27 20
-47 -2z"/>
</g>
</svg>
